<!-- <svg stroke="currentColor" fill="currentColor" stroke-width="0" viewBox="0 0 24 24" color="#fff" height="30" width="30"
    xmlns="http://www.w3.org/2000/svg" style="color: #fff;">
    <path
        d="M18.244 2.25h3.308l-7.227 8.26 8.502 11.24H16.17l-5.214-6.817L4.99 21.75H1.68l7.73-8.835L1.254 2.25H8.08l4.713 6.231zm-1.161 17.52h1.833L7.084 4.126H5.117z">
    </path>
</svg> -->

<svg xmlns="http://www.w3.org/2000/svg" stroke="currentColor" height="30" width="30" fill="currentColor" 
class="bi bi-stack-overflow" viewBox="0 0 16 16"
style="color: #fff;">
  <path d="M12.412 14.572V10.29h1.428V16H1v-5.71h1.428v4.282z"/>
  <path d="M3.857 13.145h7.137v-1.428H3.857zM10.254 0 9.108.852l4.26 5.727 1.146-.852zm-3.54 3.377 5.484 4.567.913-1.097L7.627 2.28l-.914 1.097zM4.922 6.55l6.47 3.013.603-1.294-6.47-3.013zm-.925 3.344 6.985 1.469.294-1.398-6.985-1.468z"/>
</svg>